<?xml version="1.0" encoding="UTF-8"?>
<svg version="1.1"
     baseProfile="full"
     xmlns="http://www.w3.org/2000/svg"
     xmlns:xlink="http://www.w3.org/1999/xlink"
     xmlns:ev="http://www.w3.org/2001/xml-events">
    <title>Text Pattern Fill Example</title>
    <defs>
        <pattern id="img1" patternUnits="userSpaceOnUse" width="600" height="450">
            <image xlink:href="./bg.jpg" x="0" y="0"
                width="600" height="450" /><!-- Image from http://silviahartmann.com/background-tile/6-grass-meadow-tile.php-->
        </pattern>
    </defs>
    <path  d="M 3048.00,3.00
           C 3048.00,3.00 1891.00,1210.00 1891.00,1210.00
             1891.00,1210.00 1875.20,1232.21 1863.33,1255.67
             1853.06,1275.98 1846.50,1298.00 1846.50,1298.00
             1846.50,1298.00 1832.98,1333.69 1826.67,1366.33
             1821.62,1392.46 1823.50,1417.00 1823.50,1417.00
             1823.50,1417.00 1820.43,1447.24 1822.33,1476.67
             1824.42,1508.86 1831.50,1540.50 1831.50,1540.50
             1831.50,1540.50 1847.25,1593.96 1865.67,1637.33
             1880.65,1672.62 1894.00,1704.67 1894.00,1704.67
             1894.00,1704.67 1969.50,1854.00 1969.50,1854.00
             1969.50,1854.00 2119.50,2146.50 2119.50,2146.50
             2119.50,2146.50 2286.00,2487.00 2286.00,2487.00
             2286.00,2487.00 2506.50,2952.00 2506.50,2952.00
             2506.50,2952.00 2608.50,3159.00 2608.50,3159.00
             2608.50,3159.00 2623.61,3197.67 2646.00,3226.67
             2669.34,3256.90 2697.33,3281.33 2697.33,3281.33
             2697.33,3281.33 2711.95,3297.26 2732.67,3310.00
             2760.28,3326.98 2796.00,3342.00 2796.00,3342.00
             2796.00,3342.00 2823.41,3351.52 2850.00,3356.67
             2877.78,3362.04 2904.77,3363.03 2904.00,3361.50
             2903.36,3360.21 2946.82,3355.58 2979.33,3346.67
             3022.73,3334.77 3058.50,3318.00 3058.50,3318.00
             3058.50,3318.00 3148.50,3280.50 3148.50,3280.50
             3148.50,3280.50 4248.00,2860.00 4248.00,2860.00
             4248.00,2860.00 3932.00,-4.00 3932.00,-4.00"
          fill="url(#img1)" />
        
</svg>
